<?xml version="1.0" encoding="UTF-8"?>
<svg id="Layer_1" xmlns="http://www.w3.org/2000/svg" version="1.1" viewBox="0 0 24 24">
  <path fill="#6CD9BC" d="M13,2v3h-2v-3h2ZM22,11v2h-3v-2h3ZM5,11v2h-3v-2h3ZM6,4.1l2.1,2.1-1.4,1.4-2.1-2.1,1.4-1.4ZM18,4.1l1.4,1.4-2.1,2.1-1.4-1.4,2.1-2.1ZM12,7c1.38,0,2.56.49,3.54,1.46s1.46,2.15,1.46,3.54c0,.8-.18,1.55-.54,2.24s-.85,1.28-1.46,1.76v5h-6v-5c-.62-.48-1.1-1.07-1.46-1.76s-.54-1.44-.54-2.24c0-1.38.49-2.56,1.46-3.54s2.15-1.46,3.54-1.46ZM13,16.9c-.17.03-.33.06-.5.08s-.33.03-.5.03-.33,0-.5-.03-.33-.04-.5-.08v2.1h2v-2.1ZM12,9c-.83,0-1.54.29-2.13.88s-.88,1.29-.88,2.13.29,1.54.88,2.13,1.29.88,2.13.88,1.54-.29,2.13-.88.88-1.29.88-2.13-.29-1.54-.88-2.13-1.29-.88-2.13-.88Z"/>
</svg>