<?xml version="1.0" encoding="UTF-8"?>
<svg id="Layer_1" xmlns="http://www.w3.org/2000/svg" version="1.1" viewBox="0 0 977.98 100">
  <!-- Generator: Adobe Illustrator 29.8.1, SVG Export Plug-In . SVG Version: 2.1.1 Build 2)  -->
  <defs>
    <style>
      .st0 {
        isolation: isolate;
      }

      .st1 {
        fill: #f2f1eb;
      }
    </style>
  </defs>
  <g id="Web_Designer" class="st0">
    <g class="st0">
      <path class="st1" d="M110.13,0c.58,0,1.09.22,1.53.65s.65.98.65,1.63l-13.73,68.3c-.44,1.67-1.34,3.05-2.72,4.14-1.38,1.09-2.98,1.63-4.79,1.63h-24.73c-1.74,0-3.31-.54-4.68-1.63-1.38-1.09-2.25-2.47-2.61-4.14l-2.61-21.13-.54-.11-2.61,21.24c-.36,1.67-1.24,3.05-2.61,4.14-1.38,1.09-2.94,1.63-4.68,1.63h-24.73c-1.74,0-3.32-.54-4.74-1.63s-2.31-2.47-2.67-4.14L0,2.29c0-.65.22-1.2.65-1.63s.98-.65,1.63-.65h26.91c2.03,0,3.77.69,5.23,2.07,1.45,1.38,2.21,3.09,2.29,5.12l2.18,45.53h1.31l2.18-38.02c.07-1.96.82-3.61,2.23-4.96,1.42-1.34,3.1-2.05,5.07-2.12l.11-.11h12.74l.11.11c1.96.07,3.65.78,5.07,2.12,1.42,1.34,2.16,2.99,2.23,4.96l2.18,38.02h1.31l2.18-45.53c.14-2.03.93-3.74,2.34-5.12,1.42-1.38,3.14-2.07,5.17-2.07h27.02Z"/>
      <path class="st1" d="M183.77,52.61l-45.42,2.51v1.42l45.42,2.51c2.03.15,3.74.93,5.12,2.34,1.38,1.42,2.07,3.14,2.07,5.17v7.52c0,.65-.22,1.2-.65,1.63s-.98.65-1.63.65h-54.25c-6.25,0-11.58-2.21-16.01-6.64-4.43-4.43-6.64-9.77-6.64-16.01v-23.53c0-6.25,2.21-11.58,6.64-16.01,4.43-4.43,9.77-6.64,16.01-6.64h33.88c6.24,0,11.58,2.22,16.01,6.64,4.43,4.43,6.64,9.77,6.64,16.01v14.92c0,2.03-.69,3.76-2.07,5.17-1.38,1.42-3.09,2.2-5.12,2.34ZM138.78,40.96v1.63l33.44-14.81c1.09-.44,1.83-1.2,2.23-2.29.4-1.09.34-2.14-.16-3.16-.58-1.02-1.42-1.67-2.51-1.96-1.09-.29-2.14-.07-3.16.65l-29.85,19.93Z"/>
      <path class="st1" d="M252.39,7.52c6.24,0,11.58,2.22,16.01,6.64,4.43,4.43,6.65,9.77,6.65,16.01v23.53c0,6.25-2.22,11.58-6.65,16.01s-9.77,6.64-16.01,6.64h-22.98c-1.96,0-3.69-.69-5.17-2.07-1.49-1.38-2.27-3.05-2.34-5.01l-.44-8.82h-1.31l-.54,8.82c-.15,1.96-.93,3.63-2.34,5.01-1.42,1.38-3.14,2.07-5.17,2.07h-13.94c-.65,0-1.2-.22-1.63-.65s-.65-.98-.65-1.63V2.4c0-.58.22-1.09.65-1.53s.98-.65,1.63-.65h18.52c.58,0,1.09.2,1.53.6.44.4.65.89.65,1.47l1.31,21.24h1.31l.44-8.82c.07-2.03.85-3.74,2.34-5.12,1.49-1.38,3.21-2.07,5.17-2.07h22.98ZM256.1,29.19c1.02-.51,1.69-1.31,2.02-2.4s.16-2.14-.49-3.16c-.73-1.02-1.65-1.58-2.78-1.69-1.13-.11-2.12.24-3,1.04l-28.76,22.44v1.53l33.01-17.76Z"/>
      <path class="st1" d="M382.13.22c6.24,0,11.58,2.22,16.01,6.65,4.43,4.43,6.65,9.77,6.65,16.01v30.83c0,6.25-2.22,11.58-6.65,16.01s-9.77,6.64-16.01,6.64h-54.25c-.65,0-1.2-.22-1.63-.65s-.65-.98-.65-1.63V2.4c0-.58.22-1.09.65-1.53s.98-.65,1.63-.65h54.25ZM379.62,24.62c.73-1.02.98-2.11.76-3.27-.22-1.16-.84-2.07-1.85-2.72-1.02-.58-2.12-.73-3.32-.44-1.2.29-2.05.95-2.56,1.96l-24.18,44.66,1.2.65,29.96-40.85Z"/>
      <path class="st1" d="M480.39,52.61l-45.42,2.51v1.42l45.42,2.51c2.03.15,3.74.93,5.12,2.34,1.38,1.42,2.07,3.14,2.07,5.17v7.52c0,.65-.22,1.2-.65,1.63s-.98.65-1.63.65h-54.25c-6.25,0-11.58-2.21-16.01-6.64-4.43-4.43-6.64-9.77-6.64-16.01v-23.53c0-6.25,2.21-11.58,6.64-16.01s9.77-6.64,16.01-6.64h33.88c6.24,0,11.58,2.22,16.01,6.64,4.43,4.43,6.64,9.77,6.64,16.01v14.92c0,2.03-.69,3.76-2.07,5.17-1.38,1.42-3.09,2.2-5.12,2.34ZM435.4,40.96v1.63l33.44-14.81c1.09-.44,1.83-1.2,2.23-2.29.4-1.09.34-2.14-.16-3.16-.58-1.02-1.42-1.67-2.51-1.96-1.09-.29-2.14-.07-3.16.65l-29.85,19.93Z"/>
      <path class="st1" d="M563.94,24.07l-33.88,10.35v1.31l33.88-4.79c1.89.22,3.48,1.04,4.79,2.45,1.31,1.42,1.96,3.1,1.96,5.07v15.25c0,6.25-2.22,11.58-6.64,16.01s-9.77,6.64-16.01,6.64h-55.01c-1.02,0-1.53-.51-1.53-1.53v-8.93c0-1.89.65-3.56,1.96-5.01,1.31-1.45,2.9-2.25,4.79-2.4l39.87-6.43v-1.31l-39.87,1.2c-1.89-.22-3.48-1.05-4.79-2.51-1.31-1.45-1.96-3.12-1.96-5.01v-14.27c0-6.25,2.21-11.58,6.64-16.01s9.77-6.64,16.01-6.64h55.01c.44,0,.8.16,1.09.49.29.33.44.67.44,1.03v7.52c0,1.96-.65,3.65-1.96,5.07-1.31,1.42-2.9,2.23-4.79,2.45Z"/>
      <path class="st1" d="M646.07,25.16l-27.34,2.83v1.31l28.54,3.05c1.89.22,3.48,1.03,4.79,2.45,1.31,1.42,1.96,3.1,1.96,5.07v34.2c0,.65-.22,1.2-.65,1.63s-.98.65-1.63.65h-74.62c-.65,0-1.2-.22-1.63-.65s-.65-.98-.65-1.63v-34.2c0-1.96.65-3.67,1.96-5.12,1.31-1.45,2.9-2.25,4.79-2.4l28.43-3.05v-1.31l-27.23-2.83c-2.25-.22-4.14-1.16-5.66-2.83-1.53-1.67-2.29-3.63-2.29-5.88v-.11c0-2.4.85-4.47,2.56-6.21,1.71-1.74,3.79-2.61,6.26-2.61h61.55c2.47,0,4.56.87,6.26,2.61,1.71,1.74,2.56,3.81,2.56,6.21s-.76,4.32-2.29,5.99c-1.53,1.67-3.41,2.61-5.66,2.83Z"/>
      <path class="st1" d="M714.59,7.52c6.24,0,11.58,2.22,16.01,6.64,4.43,4.43,6.64,9.77,6.64,16.01v47.17c0,6.25-2.22,11.58-6.64,16.01-4.43,4.43-9.77,6.65-16.01,6.65h-54.25c-.65,0-1.2-.24-1.63-.71-.44-.47-.65-1-.65-1.58v-7.52c0-2.03.69-3.76,2.07-5.17,1.38-1.42,3.05-2.2,5.01-2.34l45.53-2.61v-1.31l-31.05-2.4c-.15,0-.36-.02-.65-.05-.29-.04-.51-.05-.65-.05h-.11.11c-5.74-.58-10.55-3.03-14.43-7.35-3.89-4.32-5.83-9.38-5.83-15.2v-23.53c0-6.25,2.21-11.58,6.64-16.01s9.77-6.64,16.01-6.64h33.88ZM712.3,62.2l1.09-.76-25.93-38.67c-.65-.94-1.56-1.53-2.72-1.74-1.16-.22-2.22,0-3.16.65-1.02.73-1.58,1.69-1.69,2.89-.11,1.2.23,2.27,1.03,3.21l31.37,34.42Z"/>
      <path class="st1" d="M744.87,7.52h54.25c6.24,0,11.58,2.22,16.01,6.64,4.43,4.43,6.65,9.77,6.65,16.01v43.9c0,.65-.22,1.2-.65,1.63s-.98.65-1.63.65h-41.83c-2.03,0-3.76-.69-5.17-2.07-1.42-1.38-2.2-3.05-2.34-5.01v-21.68l32.68-18.41c1.02-.51,1.69-1.31,2.02-2.4.33-1.09.16-2.14-.49-3.16-.73-1.02-1.65-1.58-2.78-1.69-1.13-.11-2.12.24-3,1.04l-31.7,23.31-.55,22.98c-.15,1.96-.93,3.63-2.34,5.01-1.42,1.38-3.14,2.07-5.17,2.07h-13.94c-.65,0-1.2-.22-1.63-.65s-.65-.98-.65-1.63V9.8c0-.58.22-1.11.65-1.58.44-.47.98-.71,1.63-.71Z"/>
      <path class="st1" d="M897.81,52.61l-45.42,2.51v1.42l45.42,2.51c2.03.15,3.74.93,5.12,2.34,1.38,1.42,2.07,3.14,2.07,5.17v7.52c0,.65-.22,1.2-.65,1.63s-.98.65-1.63.65h-54.25c-6.25,0-11.58-2.21-16.01-6.64-4.43-4.43-6.64-9.77-6.64-16.01v-23.53c0-6.25,2.21-11.58,6.64-16.01s9.77-6.64,16.01-6.64h33.88c6.24,0,11.58,2.22,16.01,6.64,4.43,4.43,6.64,9.77,6.64,16.01v14.92c0,2.03-.69,3.76-2.07,5.17-1.38,1.42-3.09,2.2-5.12,2.34ZM852.82,40.96v1.63l33.44-14.81c1.09-.44,1.83-1.2,2.23-2.29.4-1.09.34-2.14-.16-3.16-.58-1.02-1.42-1.67-2.51-1.96-1.09-.29-2.14-.07-3.16.65l-29.85,19.93Z"/>
      <path class="st1" d="M944.32,7.52c-2.03,0-3.76.69-5.17,2.07-1.42,1.38-2.2,3.09-2.34,5.12l-.87,14.82h-1.31l-.76-14.82c-.07-2.03-.86-3.74-2.34-5.12-1.49-1.38-3.25-2.07-5.28-2.07h-8.93c-2.11,0-3.89.74-5.34,2.23-1.45,1.49-2.18,3.29-2.18,5.39v58.93c0,.65.22,1.2.65,1.63s.98.65,1.63.65h43.35c.87,0,1.53-.38,1.96-1.14.44-.76.44-1.51,0-2.23l-19.06-32.9.87-.98,16.56,8.71c3.78,2.11,7.63,2.98,11.55,2.61,3.92-.36,7.48-1.45,10.68-3.27V7.52h-33.66Z"/>
    </g>
  </g>
</svg>