<?xml version="1.0" encoding="UTF-8"?>
<svg id="Layer_1" xmlns="http://www.w3.org/2000/svg" version="1.1" viewBox="0 0 359.15 100">
  <!-- Generator: Adobe Illustrator 29.8.1, SVG Export Plug-In . SVG Version: 2.1.1 Build 2)  -->
  <defs>
    <style>
      .st0 {
        isolation: isolate;
      }

      .st1 {
        fill: #f2f1eb;
      }
    </style>
  </defs>
  <g id="Web_Designer" class="st0">
    <g class="st0">
      <path class="st1" d="M59.34,0c.31,0,.59.12.82.35s.35.53.35.88l-7.4,36.8c-.23.9-.72,1.64-1.47,2.23-.74.59-1.6.88-2.58.88h-13.32c-.94,0-1.78-.29-2.52-.88-.74-.59-1.21-1.33-1.41-2.23l-1.41-11.39-.29-.06-1.41,11.45c-.2.9-.67,1.64-1.41,2.23-.74.59-1.58.88-2.52.88h-13.32c-.94,0-1.79-.29-2.55-.88-.76-.59-1.24-1.33-1.44-2.23L0,1.23c0-.35.12-.65.35-.88s.53-.35.88-.35h14.5c1.1,0,2.03.37,2.82,1.11.78.74,1.19,1.66,1.23,2.76l1.17,24.53h.7l1.17-20.48c.04-1.06.44-1.95,1.2-2.67.76-.72,1.67-1.11,2.73-1.14l.06-.06h6.87l.06.06c1.06.04,1.97.42,2.73,1.14.76.72,1.16,1.61,1.2,2.67l1.17,20.48h.7l1.17-24.53c.08-1.1.5-2.02,1.26-2.76.76-.74,1.69-1.11,2.79-1.11h14.56Z"/>
      <path class="st1" d="M99.02,28.35l-24.48,1.35v.76l24.48,1.35c1.09.08,2.01.5,2.76,1.26.74.76,1.12,1.69,1.12,2.79v4.05c0,.35-.12.65-.35.88s-.53.35-.88.35h-29.23c-3.37,0-6.24-1.19-8.63-3.58-2.39-2.39-3.58-5.26-3.58-8.63v-12.68c0-3.36,1.19-6.24,3.58-8.63,2.39-2.39,5.26-3.58,8.63-3.58h18.25c3.36,0,6.24,1.19,8.63,3.58,2.39,2.39,3.58,5.26,3.58,8.63v8.04c0,1.1-.37,2.03-1.12,2.79-.74.76-1.66,1.18-2.76,1.26ZM74.78,22.07v.88l18.02-7.98c.59-.24.99-.65,1.2-1.23.21-.59.19-1.15-.09-1.7-.31-.55-.76-.9-1.35-1.06-.59-.16-1.15-.04-1.7.35l-16.08,10.74Z"/>
      <path class="st1" d="M136,4.05c3.36,0,6.24,1.19,8.63,3.58,2.39,2.39,3.58,5.26,3.58,8.63v12.68c0,3.37-1.19,6.24-3.58,8.63-2.39,2.39-5.26,3.58-8.63,3.58h-12.39c-1.06,0-1.99-.37-2.79-1.12-.8-.74-1.22-1.64-1.26-2.7l-.23-4.75h-.7l-.29,4.75c-.08,1.06-.5,1.96-1.26,2.7-.76.74-1.69,1.12-2.79,1.12h-7.51c-.35,0-.65-.12-.88-.35-.23-.23-.35-.53-.35-.88V1.29c0-.31.12-.59.35-.82.23-.24.53-.35.88-.35h9.98c.31,0,.59.11.82.32.23.21.35.48.35.79l.7,11.45h.7l.23-4.75c.04-1.1.46-2.01,1.26-2.76.8-.74,1.73-1.11,2.79-1.11h12.39ZM137.99,15.73c.55-.27.91-.7,1.09-1.29.18-.59.09-1.15-.26-1.7-.39-.55-.89-.85-1.5-.91-.61-.06-1.14.13-1.61.56l-15.5,12.09v.82l17.78-9.57Z"/>
    </g>
    <g class="st0">
      <path class="st1" d="M32.16,46.24c3.36,0,6.24,1.19,8.63,3.58,2.39,2.39,3.58,5.26,3.58,8.63v16.61c0,3.37-1.19,6.24-3.58,8.63-2.39,2.39-5.26,3.58-8.63,3.58H2.93c-.35,0-.65-.12-.88-.35-.23-.23-.35-.53-.35-.88v-38.62c0-.31.12-.59.35-.82.23-.24.53-.35.88-.35h29.23ZM30.81,59.38c.39-.55.53-1.14.41-1.76-.12-.63-.45-1.11-1-1.47-.55-.31-1.14-.39-1.79-.24-.65.16-1.11.51-1.38,1.06l-13.03,24.07.65.35,16.14-22.01Z"/>
      <path class="st1" d="M85.11,74.47l-24.48,1.35v.76l24.48,1.35c1.09.08,2.01.5,2.76,1.26.74.76,1.12,1.69,1.12,2.79v4.05c0,.35-.12.65-.35.88s-.53.35-.88.35h-29.23c-3.37,0-6.24-1.19-8.63-3.58-2.39-2.39-3.58-5.26-3.58-8.63v-12.68c0-3.36,1.19-6.24,3.58-8.63,2.39-2.39,5.26-3.58,8.63-3.58h18.25c3.36,0,6.24,1.19,8.63,3.58,2.39,2.39,3.58,5.26,3.58,8.63v8.04c0,1.1-.37,2.03-1.12,2.79-.74.76-1.66,1.18-2.76,1.26ZM60.87,68.19v.88l18.02-7.98c.59-.24.99-.65,1.2-1.23.21-.59.19-1.15-.09-1.7-.31-.55-.76-.9-1.35-1.06-.59-.16-1.15-.04-1.7.35l-16.08,10.74Z"/>
      <path class="st1" d="M130.13,59.09l-18.25,5.58v.7l18.25-2.58c1.02.12,1.88.56,2.58,1.32.7.76,1.06,1.67,1.06,2.73v8.22c0,3.37-1.19,6.24-3.58,8.63-2.39,2.39-5.26,3.58-8.63,3.58h-29.64c-.55,0-.82-.27-.82-.82v-4.81c0-1.02.35-1.92,1.06-2.7.7-.78,1.56-1.21,2.58-1.29l21.48-3.46v-.7l-21.48.65c-1.02-.12-1.88-.57-2.58-1.35-.7-.78-1.06-1.68-1.06-2.7v-7.69c0-3.36,1.19-6.24,3.58-8.63,2.39-2.39,5.26-3.58,8.63-3.58h29.64c.23,0,.43.09.59.26.16.18.23.36.23.56v4.05c0,1.06-.35,1.97-1.06,2.73-.7.76-1.57,1.2-2.58,1.32Z"/>
      <path class="st1" d="M174.38,59.68l-14.73,1.53v.7l15.38,1.64c1.02.12,1.88.56,2.58,1.32.7.76,1.06,1.67,1.06,2.73v18.43c0,.35-.12.65-.35.88-.23.23-.53.35-.88.35h-40.21c-.35,0-.65-.12-.88-.35-.23-.23-.35-.53-.35-.88v-18.43c0-1.06.35-1.98,1.06-2.76s1.56-1.21,2.58-1.29l15.32-1.64v-.7l-14.67-1.53c-1.21-.12-2.23-.63-3.05-1.53-.82-.9-1.23-1.96-1.23-3.17v-.06c0-1.29.46-2.41,1.38-3.35.92-.94,2.04-1.41,3.37-1.41h33.16c1.33,0,2.46.47,3.37,1.41.92.94,1.38,2.05,1.38,3.35s-.41,2.33-1.23,3.23c-.82.9-1.84,1.41-3.05,1.53Z"/>
      <path class="st1" d="M211.3,50.17c3.36,0,6.24,1.19,8.63,3.58s3.58,5.26,3.58,8.63v25.42c0,3.37-1.19,6.24-3.58,8.63-2.39,2.39-5.26,3.58-8.63,3.58h-29.23c-.35,0-.65-.13-.88-.38-.23-.25-.35-.54-.35-.85v-4.05c0-1.1.37-2.03,1.12-2.79.74-.76,1.64-1.18,2.7-1.26l24.53-1.41v-.7l-16.73-1.29c-.08,0-.2,0-.35-.03-.16-.02-.27-.03-.35-.03h-.06.06c-3.09-.31-5.68-1.63-7.78-3.96-2.09-2.33-3.14-5.06-3.14-8.19v-12.68c0-3.36,1.19-6.24,3.58-8.63,2.39-2.39,5.26-3.58,8.63-3.58h18.25ZM210.07,79.63l.59-.41-13.97-20.84c-.35-.51-.84-.82-1.47-.94-.63-.12-1.2,0-1.7.35-.55.39-.85.91-.91,1.56s.13,1.22.56,1.73l16.91,18.55Z"/>
      <path class="st1" d="M227.62,50.17h29.23c3.36,0,6.24,1.19,8.63,3.58s3.58,5.26,3.58,8.63v23.65c0,.35-.12.65-.35.88s-.53.35-.88.35h-22.54c-1.1,0-2.03-.37-2.79-1.12-.76-.74-1.18-1.64-1.26-2.7v-11.68l17.61-9.92c.55-.27.91-.7,1.09-1.29.18-.59.09-1.15-.26-1.7-.39-.55-.89-.85-1.5-.91-.61-.06-1.14.13-1.61.56l-17.08,12.56-.29,12.39c-.08,1.06-.5,1.96-1.26,2.7-.76.74-1.69,1.12-2.79,1.12h-7.51c-.35,0-.65-.12-.88-.35s-.35-.53-.35-.88v-34.63c0-.31.12-.6.35-.85.23-.25.53-.38.88-.38Z"/>
      <path class="st1" d="M310.03,74.47l-24.48,1.35v.76l24.48,1.35c1.1.08,2.02.5,2.76,1.26.74.76,1.12,1.69,1.12,2.79v4.05c0,.35-.12.65-.35.88-.24.23-.53.35-.88.35h-29.23c-3.37,0-6.24-1.19-8.63-3.58-2.39-2.39-3.58-5.26-3.58-8.63v-12.68c0-3.36,1.19-6.24,3.58-8.63,2.39-2.39,5.26-3.58,8.63-3.58h18.25c3.37,0,6.24,1.19,8.63,3.58,2.39,2.39,3.58,5.26,3.58,8.63v8.04c0,1.1-.37,2.03-1.12,2.79-.74.76-1.66,1.18-2.76,1.26ZM285.78,68.19v.88l18.02-7.98c.59-.24.99-.65,1.2-1.23.21-.59.19-1.15-.09-1.7-.31-.55-.76-.9-1.35-1.06-.59-.16-1.15-.04-1.7.35l-16.08,10.74Z"/>
      <path class="st1" d="M355.1,50.17c1.13,0,2.09.4,2.88,1.2.78.8,1.17,1.77,1.17,2.91v6.81c0,2.23-.56,4.28-1.67,6.16s-2.53,3.31-4.25,4.28c-1.72.98-3.64,1.57-5.75,1.76-2.11.2-4.19-.27-6.22-1.41l-8.92-4.7-.47.53,10.27,17.73c.23.39.23.79,0,1.2-.24.41-.59.62-1.06.62h-23.36c-.35,0-.64-.12-.88-.35-.23-.23-.35-.53-.35-.88v-31.75c0-1.14.39-2.1,1.17-2.91.78-.8,1.74-1.2,2.88-1.2h4.81c1.1,0,2.04.37,2.85,1.11.8.74,1.22,1.66,1.26,2.76l.41,7.98h.7l.47-7.98c.08-1.1.5-2.01,1.26-2.76.76-.74,1.69-1.11,2.79-1.11h20.02Z"/>
    </g>
  </g>
</svg>