<?xml version="1.0" encoding="UTF-8"?>
<svg id="Layer_1" xmlns="http://www.w3.org/2000/svg" version="1.1" viewBox="0 0 500 40">
  <!-- Generator: Adobe Illustrator 29.8.1, SVG Export Plug-In . SVG Version: 2.1.1 Build 2)  -->
  <defs>
    <style>
      .st0 {
        fill: #18181a;
      }

      .st1 {
        isolation: isolate;
      }
    </style>
  </defs>
  <g id="Enrique_Soto" class="st1">
    <g class="st1">
      <path class="st0" d="M38.67,6.55l-17.66,4.9v.68l15.95-1.59c1.18-.15,2.21.17,3.1.97.89.8,1.34,1.79,1.34,2.96v.91c0,.84-.25,1.59-.74,2.28-.49.68-1.16,1.16-1.99,1.42l-17.66,4.9v.68l15.95-1.59c1.18-.15,2.21.17,3.1.97.89.8,1.34,1.79,1.34,2.96v11.73c0,.34-.11.63-.34.85s-.51.34-.85.34H1.2c-.34,0-.63-.11-.85-.34-.23-.23-.34-.51-.34-.85V1.25c0-.3.11-.57.34-.8C.57.23.85.11,1.2.11h39.01c.34,0,.63.11.85.34s.34.49.34.8v1.59c0,.84-.25,1.59-.74,2.28-.49.68-1.16,1.16-1.99,1.42Z"/>
      <path class="st0" d="M45.22,3.93h28.36c3.27,0,6.06,1.16,8.37,3.47,2.32,2.32,3.47,5.11,3.47,8.37v22.95c0,.34-.11.63-.34.85s-.51.34-.85.34h-21.87c-1.06,0-1.96-.36-2.71-1.08s-1.15-1.59-1.22-2.62v-11.33l17.09-9.63c.53-.26.88-.68,1.05-1.25.17-.57.09-1.12-.26-1.65-.38-.53-.86-.83-1.45-.88-.59-.06-1.11.12-1.57.54l-16.57,12.19-.29,12.02c-.08,1.02-.48,1.9-1.22,2.62s-1.64,1.08-2.71,1.08h-7.29c-.34,0-.63-.11-.85-.34-.23-.23-.34-.51-.34-.85V5.13c0-.3.11-.58.34-.82.23-.25.51-.37.85-.37Z"/>
      <path class="st0" d="M125.58,3.93c1.1,0,2.03.39,2.79,1.17.76.78,1.14,1.72,1.14,2.82v6.61c0,2.16-.54,4.16-1.62,5.98-1.08,1.82-2.46,3.21-4.13,4.16-1.67.95-3.53,1.52-5.58,1.71-2.05.19-4.06-.27-6.04-1.37l-8.66-4.56-.46.51,9.97,17.2c.23.38.23.77,0,1.17s-.57.6-1.03.6h-22.67c-.34,0-.63-.11-.85-.34-.23-.23-.34-.51-.34-.85V7.92c0-1.1.38-2.04,1.14-2.82.76-.78,1.69-1.17,2.79-1.17h4.67c1.06,0,1.98.36,2.76,1.08.78.72,1.19,1.61,1.22,2.68l.4,7.75h.68l.46-7.75c.08-1.06.48-1.96,1.22-2.68s1.64-1.08,2.71-1.08h19.42Z"/>
      <path class="st0" d="M168.19,13.16l-14.3,1.48v.68l14.92,1.59c.99.11,1.82.54,2.51,1.28.68.74,1.02,1.62,1.02,2.65v17.88c0,.34-.11.63-.34.85-.23.23-.51.34-.85.34h-39.01c-.34,0-.63-.11-.85-.34s-.34-.51-.34-.85v-17.88c0-1.02.34-1.92,1.03-2.68.68-.76,1.52-1.18,2.51-1.25l14.87-1.59v-.68l-14.24-1.48c-1.18-.11-2.16-.61-2.96-1.48s-1.2-1.9-1.2-3.08v-.06c0-1.25.45-2.33,1.34-3.25.89-.91,1.98-1.37,3.28-1.37h32.18c1.29,0,2.38.46,3.27,1.37.89.91,1.34,1.99,1.34,3.25s-.4,2.26-1.2,3.13-1.79,1.37-2.96,1.48Z"/>
      <path class="st0" d="M214.38,4.04c.34,0,.63.11.85.34.23.23.34.51.34.85v33.49c0,.34-.11.63-.34.85-.23.23-.51.34-.85.34h-22.67c-.46,0-.8-.2-1.02-.6s-.23-.79,0-1.17l7.46-16.4c-.11-.11-.23-.17-.34-.17l-7.01,12.13c-.8,1.29-1.94,1.94-3.42,1.94h-1.37c-3.27,0-6.06-1.16-8.37-3.47-2.32-2.32-3.47-5.11-3.47-8.37v-7.92c0-3.26,1.16-6.06,3.47-8.37,2.32-2.32,5.11-3.47,8.37-3.47h28.36ZM199.68,11.73v-.8l-17.31,9.28c-.53.27-.87.69-1.03,1.28-.15.59-.06,1.13.29,1.62.34.49.82.79,1.42.88.61.09,1.14-.07,1.59-.48l15.04-11.79Z"/>
      <path class="st0" d="M258.52,3.93c.34,0,.63.12.85.37.23.25.34.52.34.82v22.95c0,3.27-1.16,6.06-3.47,8.37-2.32,2.32-5.11,3.47-8.37,3.47h-17.71c-3.27,0-6.06-1.16-8.37-3.47-2.32-2.32-3.47-5.11-3.47-8.37V5.13c0-.3.11-.58.34-.82.23-.25.51-.37.85-.37h14.12c1.02,0,1.93.36,2.71,1.08.78.72,1.19,1.61,1.22,2.68l1.08,19.88h.68l1.14-19.88c.08-1.06.48-1.96,1.22-2.68.74-.72,1.64-1.08,2.71-1.08h14.12Z"/>
      <path class="st0" d="M299.47,27.51l-23.75,1.31v.74l23.75,1.31c1.06.08,1.96.49,2.68,1.23.72.74,1.08,1.64,1.08,2.71v3.93c0,.34-.11.63-.34.85s-.51.34-.85.34h-28.36c-3.27,0-6.06-1.16-8.37-3.47-2.32-2.32-3.47-5.11-3.47-8.37v-12.3c0-3.26,1.16-6.06,3.47-8.37s5.11-3.47,8.37-3.47h17.71c3.27,0,6.06,1.16,8.37,3.47s3.47,5.11,3.47,8.37v7.8c0,1.06-.36,1.97-1.08,2.71-.72.74-1.61,1.15-2.68,1.23ZM275.94,21.41v.85l17.49-7.75c.57-.23.96-.63,1.17-1.2.21-.57.18-1.12-.09-1.65-.3-.53-.74-.87-1.31-1.02s-1.12-.04-1.65.34l-15.61,10.42Z"/>
      <path class="st0" d="M367.75,10.65l-12.81,4.16v.68l11.39-.91c1.14-.11,2.15.22,3.02,1s1.31,1.76,1.31,2.93v9.57c0,3.27-1.16,6.06-3.47,8.37s-5.11,3.47-8.37,3.47h-28.76c-.53,0-.8-.27-.8-.8v-4.78c0-.87.27-1.67.82-2.39s1.24-1.2,2.08-1.42l13.56-3.3v-.68l-12.08.17c-1.18.11-2.2-.22-3.07-1-.87-.78-1.31-1.75-1.31-2.93v-10.93c0-3.26,1.16-6.06,3.47-8.37,2.32-2.32,5.11-3.47,8.37-3.47h28.76c.53,0,.8.27.8.8v6.04c0,.87-.28,1.67-.82,2.39-.55.72-1.24,1.2-2.08,1.42Z"/>
      <path class="st0" d="M402.15,3.93c3.26,0,6.06,1.16,8.37,3.47,2.32,2.32,3.47,5.11,3.47,8.37v12.3c0,3.27-1.16,6.06-3.47,8.37s-5.11,3.47-8.37,3.47h-17.71c-3.27,0-6.06-1.16-8.37-3.47-2.32-2.32-3.47-5.11-3.47-8.37v-12.3c0-3.26,1.16-6.06,3.47-8.37s5.11-3.47,8.37-3.47h17.71ZM400.96,32.52l.57-.4-13.55-20.22c-.34-.49-.82-.8-1.42-.91-.61-.11-1.16,0-1.65.34-.53.38-.83.88-.88,1.51-.06.63.12,1.19.54,1.68l16.4,18Z"/>
      <path class="st0" d="M452.5,25.29c1.25-.34,2.4-.11,3.45.68,1.04.8,1.57,1.84,1.57,3.13v9.62c0,.34-.11.63-.34.85-.23.23-.51.34-.86.34h-28.36c-3.27,0-6.06-1.16-8.37-3.47-2.32-2.32-3.47-5.11-3.47-8.37V5.13c0-.3.11-.58.34-.82.23-.25.51-.37.86-.37h22.67c.45,0,.8.2,1.02.6.23.4.23.81,0,1.23l-10.25,16.29.51.45,11.5-9.05c.11-.11.21-.19.28-.23,1.56-.99,3.23-1.2,5.01-.63,1.78.57,3.02,1.73,3.7,3.47.57,1.44.49,2.86-.26,4.24-.74,1.39-1.87,2.25-3.39,2.59l-16.57,3.64.23.63,20.73-1.88Z"/>
      <path class="st0" d="M488.15,3.93c3.26,0,6.06,1.16,8.37,3.47,2.32,2.32,3.47,5.11,3.47,8.37v12.3c0,3.27-1.16,6.06-3.47,8.37s-5.11,3.47-8.37,3.47h-17.71c-3.27,0-6.06-1.16-8.37-3.47-2.32-2.32-3.47-5.11-3.47-8.37v-12.3c0-3.26,1.16-6.06,3.47-8.37s5.11-3.47,8.37-3.47h17.71ZM486.96,32.52l.57-.4-13.55-20.22c-.34-.49-.82-.8-1.42-.91-.61-.11-1.16,0-1.65.34-.53.38-.83.88-.88,1.51-.06.63.12,1.19.54,1.68l16.4,18Z"/>
    </g>
  </g>
</svg>